#!OML:ASF H:\BabyWalks\Project 1\Capture day 1\Session 1\baby.ASF
:FULLY-SPECIFIED
:DEGREES
536
root 10.2527 17.4322 -1.01857 292.473 83.6673 301.696
lowerback 12.7953 2.87583 -1.90696
upperback 5.26646 3.79262 -1.22592
thorax -1.67137 1.98585 -0.735128
lowerneck 2.78253 -2.61579 5.80744
upperneck -0.900059 -3.18724 2.46475
head -0.787342 -1.61922 -0.151527
rclavicle -1.39149e-015 -1.11319e-014
rhumerus -45.7304 12.7947 -86.6796
rradius 47.6706
rwrist 1.53564
rhand -8.82781 -15.7951
rfingers 7.12502
rthumb 17.1122 -45.0615
lclavicle -1.39149e-015 -1.11319e-014
lhumerus -55.8968 -12.2735 81.8475
lradius 49.6835
lwrist 1.79963
lhand 10.1873 12.7862
lfingers 7.12502
lthumb 35.304 39.2707
rfemur 0.773311 12.3984 23.0879
rtibia 24.8822
rfoot -16.462 5.50194
rtoes -2.25359
lfemur 3.76475 -5.9908 -11.9623
ltibia 30.1932
lfoot -28.6053 -4.39293
ltoes -0.664433
537
root 10.2452 17.44 -1.01272 293.918 83.7418 302.87
lowerback 12.9463 2.92252 -1.92931
upperback 5.32649 3.8522 -1.28458
thorax -1.68702 2.01809 -0.798544
lowerneck 2.98592 -2.63095 5.78531
upperneck -1.37008 -3.177 2.45085
head -0.969062 -1.62988 -0.146858
rclavicle -4.1546e-014 1.11319e-014
rhumerus -45.9159 13.1795 -87.0828
rradius 47.8061
rwrist 1.44455
rhand -8.94678 -15.7742
rfingers 7.12502
rthumb 16.9977 -45.0505
lclavicle -4.1546e-014 1.11319e-014
lhumerus -56.2556 -12.7762 82.2694
lradius 49.3179
lwrist 1.38916
lhand 10.4397 12.5477
lfingers 7.12502
lthumb 35.5432 38.9751
rfemur 0.372677 12.5245 22.9168
rtibia 24.9933
rfoot -16.4569 5.52817
rtoes -2.24476
lfemur 3.51797 -5.98735 -12.0735
ltibia 30.0647
lfoot -28.4624 -4.37223
ltoes -0.535485
538
root 10.2385 17.4475 -1.00601 295.372 83.8114 304.053
lowerback 13.0935 2.96767 -1.94802
upperback 5.38214 3.90986 -1.34291
thorax -1.70474 2.04933 -0.863524
lowerneck 3.17366 -2.64208 5.77158
upperneck -1.80924 -3.16388 2.42281
head -1.14016 -1.63764 -0.148291
rclavicle 3.97569e-015 0
rhumerus -46.1013 13.5669 -87.4884
rradius 47.9093
rwrist 1.42159
rhand -9.02263 -15.7229
rfingers 7.12502
rthumb 16.9247 -45.0055
lclavicle 3.97569e-015 0
lhumerus -56.6191 -13.2348 82.662
lradius 48.985
lwrist 0.921345
lhand 10.6117 12.2119
lfingers 7.12502
lthumb 35.7063 38.6001
rfemur -0.0256484 12.6571 22.7523
rtibia 25.1055
rfoot -16.4507 5.55297
rtoes -2.21267
lfemur 3.27076 -5.97826 -12.1764
ltibia 29.9422
lfoot -28.3287 -4.34995
ltoes -0.441422
539
root 10.2325 17.4546 -0.998444 296.786 83.8776 305.193
lowerback 13.2385 3.00912 -1.96203
upperback 5.4317 3.9627 -1.40038
thorax -1.72724 2.0781 -0.929863
lowerneck 3.35053 -2.64907 5.76655
upperneck -2.22259 -3.14726 2.38033
head -1.30283 -1.64238 -0.155976
rclavicle -9.93923e-016 -2.38542e-014
rhumerus -46.2861 13.9499 -87.8893
rradius 47.987
rwrist 1.45035
rhand -9.03945 -15.6478
rfingers 7.12502
rthumb 16.9085 -44.9317
lclavicle -9.93923e-016 -2.38542e-014
lhumerus -56.9817 -13.6355 83.0134
lradius 48.6914
lwrist 0.457788
lhand 10.7298 11.8358
lfingers 7.12502
lthumb 35.8182 38.1967
rfemur -0.422468 12.7932 22.5951
rtibia 25.2169
rfoot -16.442 5.57503
rtoes -2.16262
lfemur 3.01568 -5.9651 -12.2687
ltibia 29.8314
lfoot -28.2031 -4.32923
ltoes -0.37902
540
root 10.227 17.4613 -0.990055 298.144 83.9359 306.277
lowerback 13.3827 3.04822 -1.96731
upperback 5.47616 4.01306 -1.45546
thorax -1.75408 2.10559 -0.998587
lowerneck 3.5185 -2.65348 5.76801
upperneck -2.6149 -3.12897 2.32686
head -1.45865 -1.64518 -0.168464
rclavicle 2.16675e-014 -1.59028e-014
rhumerus -46.4685 14.3234 -88.2827
rradius 48.0399
rwrist 1.51237
rhand -8.98927 -15.5508
rfingers 7.12502
rthumb 16.9568 -44.8306
lclavicle 2.16675e-014 -1.59028e-014
lhumerus -57.3358 -13.9694 83.314
lradius 48.4449
lwrist 0.0652332
lhand 10.8237 11.4928
lfingers 7.12502
lthumb 35.9072 37.8321
rfemur -0.816805 12.9316 22.4493
rtibia 25.3246
rfoot -16.4255 5.59639
rtoes -2.0886
lfemur 2.75138 -5.95037 -12.3462
ltibia 29.7356
lfoot -28.0867 -4.3092
ltoes -0.340233
541
root 10.222 17.4678 -0.980797 299.405 83.9869 307.258
lowerback 13.5185 3.08284 -1.96776
upperback 5.5177 4.05808 -1.50388
thorax -1.77953 2.13026 -1.06208
lowerneck 3.67441 -2.65512 5.77367
upperneck -2.98634 -3.10932 2.25949
head -1.60699 -1.64615 -0.186386
rclavicle -4.17448e-015 1.27222e-014
rhumerus -46.6438 14.6819 -88.6577
rradius 48.0737
rwrist 1.59901
rhand -8.84986 -15.446
rfingers 7.12502
rthumb 17.091 -44.7142
lclavicle -4.17448e-015 1.27222e-014
lhumerus -57.6801 -14.2304 83.5661
lradius 48.2549
lwrist -0.184024
lhand 10.8622 11.2052
lfingers 7.12502
lthumb 35.9436 37.5356
rfemur -1.21085 13.0687 22.317
rtibia 25.4272
rfoot -16.4017 5.61296
rtoes -2.00045
lfemur 2.47226 -5.93838 -12.4059
ltibia 29.6561
lfoot -27.9765 -4.29276
ltoes -0.320926
542
root 10.2175 17.4741 -0.97075 300.533 84.0247 308.103
lowerback 13.6515 3.11242 -1.956
upperback 5.55675 4.09786 -1.54366
thorax -1.80576 2.15225 -1.12271
lowerneck 3.82212 -2.65256 5.77667
upperneck -3.34414 -3.08591 2.18717
head -1.75036 -1.64435 -0.20582
rclavicle 3.47873e-014 -4.13472e-014
rhumerus -46.8144 15.0248 -89.0138
rradius 48.0932
rwrist 1.69233
rhand -8.63323 -15.342
rfingers 7.12502
rthumb 17.2995 -44.592
lclavicle 3.47873e-014 -4.13472e-014
lhumerus -58.0017 -14.4121 83.7656
lradius 48.1044
lwrist -0.257816
lhand 10.8672 11.0096
lfingers 7.12502
lthumb 35.9484 37.3388
rfemur -1.60316 13.1989 22.2049
rtibia 25.5219
rfoot -16.367 5.62732
rtoes -1.90203
lfemur 2.18104 -5.9304 -12.4413
ltibia 29.5937
lfoot -27.8735 -4.27911
ltoes -0.307411
543
root 10.2131 17.4805 -0.960158 301.557 84.0569 308.845
lowerback 13.7857 3.13727 -1.94042
upperback 5.59554 4.13193 -1.57479
thorax -1.83319 2.17129 -1.17585
lowerneck 3.96664 -2.64698 5.77512
upperneck -3.69609 -3.05996 2.10804
head -1.89212 -1.64059 -0.226918
rclavicle -1.88845e-014 -1.59028e-014
rhumerus -46.9798 15.3468 -89.3439
rradius 48.0995
rwrist 1.79078
rhand -8.36335 -15.2404
rfingers 7.12502
rthumb 17.5592 -44.4675
lclavicle -1.88845e-014 -1.59028e-014
lhumerus -58.3045 -14.5122 83.9165
lradius 47.9993
lwrist -0.151595
lhand 10.8304 10.9053
lfingers 7.12502
lthumb 35.9135 37.243
rfemur -1.98971 13.314 22.1023
rtibia 25.6067
rfoot -16.3231 5.64477
rtoes -1.78604
lfemur 1.88184 -5.93058 -12.464
ltibia 29.5474
lfoot -27.7769 -4.26427
ltoes -0.294727
544
root 10.209 17.4869 -0.948918 302.393 84.0806 309.398
lowerback 13.9198 3.15583 -1.91293
upperback 5.63582 4.15945 -1.59623
thorax -1.85888 2.18707 -1.22462
lowerneck 4.08153 -2.6434 5.77797
upperneck -4.024 -3.04076 2.01338
head -2.02199 -1.63875 -0.254134
rclavicle -6.97734e-014 7.15625e-014
rhumerus -47.1422 15.6417 -89.6471
rradius 48.1041
rwrist 1.88109
rhand -8.04369 -15.1625
rfingers 7.12502
rthumb 17.8668 -44.3618
lclavicle -6.97734e-014 7.15625e-014
lhumerus -58.5872 -14.5342 84.0183
lradius 47.9377
lwrist 0.0986221
lhand 10.7463 10.8781
lfingers 7.12502
lthumb 35.8338 37.2352
rfemur -2.36743 13.4061 22.0182
rtibia 25.6787
rfoot -16.2731 5.66126
rtoes -1.68448
lfemur 1.57359 -5.94025 -12.4637
ltibia 29.5177
lfoot -27.6912 -4.25183
ltoes -0.282443
545
root 10.205 17.4931 -0.937215 303.061 84.0971 309.786
lowerback 14.0554 3.1704 -1.87076
upperback 5.67698 4.18381 -1.61043
thorax -1.88393 2.20135 -1.2737
lowerneck 4.17835 -2.6448 5.79124
upperneck -4.33917 -3.03076 1.90125
head -2.14584 -1.64046 -0.288821
rclavicle -3.99557e-014 1.59028e-015
rhumerus -47.3068 15.8976 -89.9218
rradius 48.1119
rwrist 1.9498
rhand -7.70806 -15.1142
rfingers 7.12502
rthumb 18.1897 -44.2837
lclavicle -3.99557e-014 1.59028e-015
lhumerus -58.8402 -14.4894 84.0748
lradius 47.8925
lwrist 0.440067
lhand 10.6094 10.8959
lfingers 7.12502
lthumb 35.7041 37.2846
rfemur -2.73409 13.473 21.9495
rtibia 25.7374
rfoot -16.2194 5.68159
rtoes -1.59621
lfemur 1.25789 -5.95641 -12.4434
ltibia 29.5044
lfoot -27.6185 -4.24062
ltoes -0.268129
546
root 10.2014 17.4992 -0.925162 303.534 84.1053 309.982
lowerback 14.1898 3.17925 -1.81583
upperback 5.72374 4.20304 -1.61259
thorax -1.90241 2.21316 -1.31635
lowerneck 4.24784 -2.64963 5.81088
upperneck -4.63839 -3.0291 1.77054
head -2.26072 -1.64507 -0.330834
rclavicle -2.94201e-014 1.74931e-014
rhumerus -47.4697 16.1332 -90.1654
rradius 48.1272
rwrist 1.98066
rhand -7.37579 -15.105
rfingers 7.12502
rthumb 18.5094 -44.2444
lclavicle -2.94201e-014 1.74931e-014
lhumerus -59.0561 -14.3681 84.0888
lradius 47.8505
lwrist 0.796719
lhand 10.4226 10.9165
lfingers 7.12502
lthumb 35.527 37.3478
rfemur -3.08813 13.5101 21.8986
rtibia 25.7815
rfoot -16.1653 5.70957
rtoes -1.5241
lfemur 0.936192 -5.97346 -12.3991
ltibia 29.5092
lfoot -27.5594 -4.23475
ltoes -0.255561
547
root 10.1979 17.5051 -0.912796 303.833 84.1135 310.008
lowerback 14.3249 3.18503 -1.75014
upperback 5.77386 4.22019 -1.60886
thorax -1.9174 2.22408 -1.35851
lowerneck 4.30266 -2.65986 5.83089
upperneck -4.9305 -3.03636 1.64026
head -2.37131 -1.65349 -0.372882
rclavicle -3.37934e-014 1.43125e-014
rhumerus -47.6385 16.326 -90.377
rradius 48.157
rwrist 1.98152
rhand -7.06663 -15.1327
rfingers 7.12502
rthumb 18.8067 -44.2435
lclavicle -3.37934e-014 1.43125e-014
lhumerus -59.2397 -14.1884 84.0646
lradius 47.8049
lwrist 1.12254
lhand 10.1799 10.9086
lfingers 7.12502
lthumb 35.2969 37.3948
rfemur -3.42866 13.5152 21.8571
rtibia 25.8122
rfoot -16.1113 5.74802
rtoes -1.48201
lfemur 0.607614 -5.99121 -12.3396
ltibia 29.5332
lfoot -27.5149 -4.23745
ltoes -0.242466
548
root 10.1948 17.5106 -0.900438 303.989 84.1222 309.899
lowerback 14.4617 3.18774 -1.67364
upperback 5.8295 4.23545 -1.60041
thorax -1.927 2.23431 -1.40141
lowerneck 4.32959 -2.67418 5.85484
upperneck -5.20391 -3.05218 1.50548
head -2.47141 -1.66515 -0.417365
rclavicle 2.38542e-015 7.95139e-015
rhumerus -47.8125 16.4895 -90.5614
rradius 48.1986
rwrist 1.95225
rhand -6.81543 -15.1871
rfingers 7.12502
rthumb 19.0483 -44.2743
lclavicle 2.38542e-015 7.95139e-015
lhumerus -59.3946 -13.9608 84.0142
lradius 47.7526
lwrist 1.38751
lhand 9.91293 10.8685
lfingers 7.12502
lthumb 35.0438 37.4143
rfemur -3.7544 13.4836 21.8207
rtibia 25.8312
rfoot -16.0575 5.8087
rtoes -1.45694
lfemur 0.275583 -6.0145 -12.2719
ltibia 29.5781
lfoot -27.4842 -4.2395
ltoes -0.227799
